<svg xmlns="http://www.w3.org/2000/svg" width="300" height="70.491" viewBox="0 0 300 70.491"><g transform="translate(-118.109 -97)"><path d="M-14.3,0V2.174H-24.78a.752.752,0,0,0-.562.236.85.85,0,0,0-.243.57v.593a.777.777,0,0,0,.236.57.776.776,0,0,0,.57.236h8.21a2.687,2.687,0,0,1,2.143.776,2.987,2.987,0,0,1,.669,2.022v.958a3.217,3.217,0,0,1-.167,1.019,2.71,2.71,0,0,1-.51.9,2.486,2.486,0,0,1-.867.646,2.989,2.989,0,0,1-1.269.243H-28.064V8.772H-17.3a.778.778,0,0,0,.57-.236.779.779,0,0,0,.236-.571V7.358a.778.778,0,0,0-.236-.57.776.776,0,0,0-.57-.236h-8.21A3.385,3.385,0,0,1-26.6,6.377a2.742,2.742,0,0,1-.9-.494,2.364,2.364,0,0,1-.6-.76,2.178,2.178,0,0,1-.22-.988V2.676A2.6,2.6,0,0,1-28.1,1.6a2.621,2.621,0,0,1,.6-.851A2.713,2.713,0,0,1-26.6.2,3.039,3.039,0,0,1-25.509,0Z" transform="translate(163.834 156.544)" fill="#fff"/><path d="M-14.848,0V7.6a3.229,3.229,0,0,1-.266,1.308,3.437,3.437,0,0,1-.722,1.064,3.3,3.3,0,0,1-1.072.715,3.323,3.323,0,0,1-1.3.258h-7.845a3.269,3.269,0,0,1-1.292-.258,3.325,3.325,0,0,1-1.064-.715,3.428,3.428,0,0,1-.722-1.064A3.221,3.221,0,0,1-29.4,7.6V0h2.751V7.784a.974.974,0,0,0,.281.691.916.916,0,0,0,.692.3h7.085a.938.938,0,0,0,.7-.3.957.957,0,0,0,.289-.691V0Z" transform="translate(182.636 156.544)" fill="#fff"/><path d="M-11.962,0A2.68,2.68,0,0,1-10.89.22a2.884,2.884,0,0,1,.9.608,3,3,0,0,1,.616.9A2.642,2.642,0,0,1-9.15,2.813V4.9a2.751,2.751,0,0,1-.228,1.133,2.9,2.9,0,0,1-.616.889,2.731,2.731,0,0,1-.9.585,2.847,2.847,0,0,1-1.072.2h-6.157l-2.19-2.2h7.616a.767.767,0,0,0,.6-.228.809.809,0,0,0,.2-.563V2.965a.851.851,0,0,0-.19-.562.758.758,0,0,0-.616-.228h-8.24v8.772h-2.752V0Z" transform="translate(194.786 156.544)" fill="#fff"/><path d="M-13.033,0V2.174H-23.052v2.2h7.708V6.553h-7.708v2.22h10.019v2.174H-25.8V0Z" transform="translate(214.526 156.544)" fill="#fff"/><path d="M-11.962,0a3.147,3.147,0,0,1,1.095.19,2.743,2.743,0,0,1,.9.532,2.5,2.5,0,0,1,.6.821A2.5,2.5,0,0,1-9.15,2.6V4.166a1.967,1.967,0,0,1-.106.623,2.2,2.2,0,0,1-.3.585A2.031,2.031,0,0,1-10,5.83a1.4,1.4,0,0,1-.563.251,1.666,1.666,0,0,1,1.026.608A1.731,1.731,0,0,1-9.15,7.8v3.147h-2.737V7.966A.817.817,0,0,0-12.13,7.4a.765.765,0,0,0-.563-.228h-5.427L-20.309,5h7.6a.908.908,0,0,0,.578-.19.629.629,0,0,0,.243-.524V2.9a.66.66,0,0,0-.235-.532.861.861,0,0,0-.571-.2h-8.24v8.772h-2.752V0Z" transform="translate(228.338 156.544)" fill="#fff"/><path d="M318.732-338.064H315.98V-349.01h2.752Z" transform="translate(-93.508 505.554)" fill="#fff"/><path d="M-12.025-3.212a.934.934,0,0,0-.289-.684.953.953,0,0,0-.7-.289h-7.069a.928.928,0,0,0-.692.289.944.944,0,0,0-.281.684V1.425a.944.944,0,0,0,.281.684.981.981,0,0,0,.692.3h7.069a1.009,1.009,0,0,0,.7-.3.934.934,0,0,0,.289-.684Zm-.608-3.147a3.2,3.2,0,0,1,1.293.266,3.434,3.434,0,0,1,1.064.722A3.413,3.413,0,0,1-9.554-4.3,3.247,3.247,0,0,1-9.288-3V1.242A3.229,3.229,0,0,1-9.554,2.55a3.437,3.437,0,0,1-.722,1.064,3.33,3.33,0,0,1-1.064.715,3.273,3.273,0,0,1-1.293.258h-7.83a3.267,3.267,0,0,1-1.292-.258,3.327,3.327,0,0,1-1.065-.715,3.437,3.437,0,0,1-.722-1.064,3.221,3.221,0,0,1-.266-1.308V-3a3.239,3.239,0,0,1,.266-1.3,3.413,3.413,0,0,1,.722-1.071,3.43,3.43,0,0,1,1.065-.722,3.189,3.189,0,0,1,1.292-.266Z" transform="translate(252.163 162.903)" fill="#fff"/><path d="M-11.962,0a3.147,3.147,0,0,1,1.095.19,2.743,2.743,0,0,1,.9.532,2.5,2.5,0,0,1,.6.821A2.5,2.5,0,0,1-9.15,2.6V4.166a1.967,1.967,0,0,1-.106.623,2.2,2.2,0,0,1-.3.585A2.031,2.031,0,0,1-10,5.83a1.4,1.4,0,0,1-.563.251,1.666,1.666,0,0,1,1.026.608A1.731,1.731,0,0,1-9.15,7.8v3.147h-2.737V7.966A.817.817,0,0,0-12.13,7.4a.765.765,0,0,0-.563-.228h-5.427L-20.309,5h7.6a.908.908,0,0,0,.578-.19.629.629,0,0,0,.243-.524V2.9a.66.66,0,0,0-.235-.532.861.861,0,0,0-.571-.2h-8.24v8.772h-2.752V0Z" transform="translate(269.691 156.544)" fill="#fff"/><path d="M-13.033,0V2.174H-23.052v2.2h7.45V6.553h-7.45v4.393H-25.8V0Z" transform="translate(299.206 156.544)" fill="#fff"/><path d="M452.756-338.064H450V-349.01h2.752Z" transform="translate(-161.201 505.554)" fill="#fff"/><path d="M-11.962,0a3.147,3.147,0,0,1,1.095.19,2.743,2.743,0,0,1,.9.532,2.5,2.5,0,0,1,.6.821A2.5,2.5,0,0,1-9.15,2.6V4.166a1.967,1.967,0,0,1-.106.623,2.2,2.2,0,0,1-.3.585A2.031,2.031,0,0,1-10,5.83a1.4,1.4,0,0,1-.563.251,1.666,1.666,0,0,1,1.026.608A1.731,1.731,0,0,1-9.15,7.8v3.147h-2.737V7.966A.817.817,0,0,0-12.13,7.4a.765.765,0,0,0-.563-.228h-5.427L-20.309,5h7.6a.908.908,0,0,0,.578-.19.629.629,0,0,0,.243-.524V2.9a.66.66,0,0,0-.235-.532.861.861,0,0,0-.571-.2h-8.24v8.772h-2.752V0Z" transform="translate(318.629 156.544)" fill="#fff"/><path d="M-13.033,0V2.174H-23.052v2.2h7.708V6.553h-7.708v2.22h10.019v2.174H-25.8V0Z" transform="translate(338.566 156.544)" fill="#fff"/><path d="M-10.348,0l6.294,10.946h-3.01l-5.214-9.122L-15.289,7.13h4.576l1.246,2.159H-16.5l-.973,1.657h-3.01L-14.194,0Z" transform="translate(348.271 156.544)" fill="#fff"/><path d="M-11.962,0a3.147,3.147,0,0,1,1.095.19,2.743,2.743,0,0,1,.9.532,2.5,2.5,0,0,1,.6.821A2.5,2.5,0,0,1-9.15,2.6V4.166a1.967,1.967,0,0,1-.106.623,2.2,2.2,0,0,1-.3.585A2.031,2.031,0,0,1-10,5.83a1.4,1.4,0,0,1-.563.251,1.666,1.666,0,0,1,1.026.608A1.731,1.731,0,0,1-9.15,7.8v3.147h-2.737V7.966A.817.817,0,0,0-12.13,7.4a.765.765,0,0,0-.563-.228h-5.427L-20.309,5h7.6a.908.908,0,0,0,.578-.19.629.629,0,0,0,.243-.524V2.9a.66.66,0,0,0-.235-.532.861.861,0,0,0-.571-.2h-8.24v8.772h-2.752V0Z" transform="translate(370.379 156.544)" fill="#fff"/><path d="M-17.486,0V10.946h-2.752V3.329l-4.926,7.617h-1.794l-4.911-7.617v7.617h-2.751V0h3.451l5.123,8.088L-20.678,0Z" transform="translate(399.133 156.544)" fill="#fff"/><path d="M-14.3,0V2.174H-24.78a.752.752,0,0,0-.562.236.85.85,0,0,0-.243.57v.593a.777.777,0,0,0,.236.57.776.776,0,0,0,.57.236h8.21a2.687,2.687,0,0,1,2.143.776,2.987,2.987,0,0,1,.669,2.022v.958a3.217,3.217,0,0,1-.167,1.019,2.71,2.71,0,0,1-.51.9,2.486,2.486,0,0,1-.867.646,2.989,2.989,0,0,1-1.269.243H-28.064V8.772H-17.3a.778.778,0,0,0,.57-.236.779.779,0,0,0,.236-.571V7.358a.778.778,0,0,0-.236-.57.776.776,0,0,0-.57-.236h-8.21A3.385,3.385,0,0,1-26.6,6.377a2.742,2.742,0,0,1-.9-.494,2.364,2.364,0,0,1-.6-.76,2.178,2.178,0,0,1-.22-.988V2.676A2.6,2.6,0,0,1-28.1,1.6a2.621,2.621,0,0,1,.6-.851A2.713,2.713,0,0,1-26.6.2,3.039,3.039,0,0,1-25.509,0Z" transform="translate(413.207 156.544)" fill="#fff"/><path d="M-33.795-30.154h-15.2V-41.065h15.2L-18.321-59.7h14L-24.024-35.853-4.317-12.3H-18.911ZM-54.694-12.3H-66.909V-59.7h12.215v47.4Z" transform="translate(422.426 156.7)" fill="#fff" fill-rule="evenodd"/><path d="M-12.466-48.369H-24.681V-77.129h12.215v28.761Zm0-47.4v12.948H-24.681V-95.764Z" transform="translate(356.813 192.764)" fill="#fff" fill-rule="evenodd"/><path d="M-12.466-18.616V10.537H-24.682V-18.616Zm.325-18.242H-24.682v12.541H-12.3l38,34.854H37.91v-47.4H25.695V-2.329Z" transform="translate(283.053 133.858)" fill="#fff" fill-rule="evenodd"/><path d="M-40.539,0h-8.123l-9.12,12.949h12.3l4.222,5.686H-60.987L-80.261,47.4h13.32l11.407-18.242h20.623L-23.6,47.4H-9.589Z" transform="translate(262.383 97)" fill="#fff" fill-rule="evenodd"/><path d="M-.11-12.807-.218,9.147c0,6.92,6.043,12.549,13.472,12.549H58.017V10.334H17.176a5.859,5.859,0,0,1-5.852-5.852l.107-12.624a5.858,5.858,0,0,1,5.852-5.852H57.908V-25.357H13.362c-7.429,0-13.472,5.63-13.472,12.55" transform="translate(118.327 122.357)" fill="#fff"/></g></svg>